# xmcd CD database file
#
# Track frame offsets:
#	150
#	26570
#	48008
#	70824
#	96956
#	129540
#	332550
#
# Disc length: 4440 seconds
#
# Revision: 0
# Processed by: cddbd v1.5.1PL0 Copyright (c) Steve Scherf et al.
# Submitted via: CDex 1.51
#
DISCID=57115607
DTITLE=CHEMISTRY - Long Long Way
DYEAR=2004
DGENRE=JPop
TTITLE0=Long Long Way
TTITLE1=涙のあと
TTITLE2=Long Long Way (韻シストMIX)
TTITLE3=Long Long Way [Instrumental]
TTITLE4=涙のあと [Instrumental]
TTITLE5=LGCD
TTITLE6=LGCD
EXTD=YEAR: 2004
EXTT0=
EXTT1=
EXTT2=
EXTT3=
EXTT4=
EXTT5=
EXTT6=
PLAYORDER=
